HIERARCHY
ROOT Hips
{
  OFFSET 5.72205e-005 65.662 3.42586
  CHANNELS 6 Xposition Yposition Zposition Zrotation Xrotation Yrotation
  JOINT Chest
  {
    OFFSET 0 8.7983 -4.7612
    CHANNELS 3 Zrotation Xrotation Yrotation
    JOINT Chest2
    {
      OFFSET 0 8.0291 0.4195
      CHANNELS 3 Zrotation Xrotation Yrotation
      JOINT Chest3
      {
        OFFSET 0 9.9351 -2.2114
        CHANNELS 3 Zrotation Xrotation Yrotation
        JOINT Neck
        {
          OFFSET 0 22.3885 -0.4656
          CHANNELS 3 Zrotation Xrotation Yrotation
          JOINT Head
          {
            OFFSET -0.0001 12.643 3.4389
            CHANNELS 3 Zrotation Xrotation Yrotation
            End Site
            {
              OFFSET 0.0001 17.6655 0.5274
            }
          }
        }
        JOINT LeftCollar
        {
          OFFSET 2.2603 21.606 7.4023
          CHANNELS 3 Zrotation Xrotation Yrotation
          JOINT LeftShoulder
          {
            OFFSET 13.5163 -1.1332 -5.0146
            CHANNELS 3 Zrotation Xrotation Yrotation
            JOINT LeftElbow
            {
              OFFSET -0.0995 -28.05 -0.2431
              CHANNELS 3 Zrotation Xrotation Yrotation
              JOINT LeftWrist
              {
                OFFSET 0.0679 -23.3996 -0.1402
                CHANNELS 3 Zrotation Xrotation Yrotation
                JOINT LeftFinger1
                {
                  OFFSET 0.7932 -9.069 2.5189
                  CHANNELS 3 Zrotation Xrotation Yrotation
                  JOINT LeftFinger11
                  {
                    OFFSET -0.8272 -3.3923 0.5977
                    CHANNELS 3 Zrotation Xrotation Yrotation
                    JOINT LeftFinger12
                    {
                      OFFSET -0.5649 -2.3158 0.4082
                      CHANNELS 3 Zrotation Xrotation Yrotation
                      End Site
                      {
                        OFFSET -0.4919 -1.6479 0.2673
                      }
                    }
                  }
                }
                JOINT LeftFinger2
                {
                  OFFSET 0.9159 -9.2044 0.2193
                  CHANNELS 3 Zrotation Xrotation Yrotation
                  JOINT LeftFinger21
                  {
                    OFFSET 0.0117 -4.1944 -0.0248
                    CHANNELS 3 Zrotation Xrotation Yrotation
                    JOINT LeftFinger22
                    {
                      OFFSET 0.0071 -2.3249 -0.0142
                      CHANNELS 3 Zrotation Xrotation Yrotation
                      End Site
                      {
                        OFFSET -0.1475 -2.0882 0.0028
                      }
                    }
                  }
                }
                JOINT LeftFinger3
                {
                  OFFSET 0.6113 -8.7231 -2.0637
                  CHANNELS 3 Zrotation Xrotation Yrotation
                  JOINT LeftFinger31
                  {
                    OFFSET -0.1927 -3.8059 -0.2383
                    CHANNELS 3 Zrotation Xrotation Yrotation
                    JOINT LeftFinger32
                    {
                      OFFSET -0.1091 -2.1688 -0.1362
                      CHANNELS 3 Zrotation Xrotation Yrotation
                      End Site
                      {
                        OFFSET -0.2358 -1.9176 -0.0906
                      }
                    }
                  }
                }
                JOINT LeftFinger4
                {
                  OFFSET -0.6151 -8.0947 -3.5641
                  CHANNELS 3 Zrotation Xrotation Yrotation
                  JOINT LeftFinger41
                  {
                    OFFSET -0.4882 -2.341 -0.6462
                    CHANNELS 3 Zrotation Xrotation Yrotation
                    JOINT LeftFinger42
                    {
                      OFFSET -0.3575 -1.7167 -0.4742
                      CHANNELS 3 Zrotation Xrotation Yrotation
                      End Site
                      {
                        OFFSET -0.4187 -1.5237 -0.3496
                      }
                    }
                  }
                }
                JOINT LeftFinger0
                {
                  OFFSET -1.42 -1.8761 1.4223
                  CHANNELS 3 Zrotation Xrotation Yrotation
                  JOINT LeftFinger01
                  {
                    OFFSET -1.1471 -3.4929 2.6334
                    CHANNELS 3 Zrotation Xrotation Yrotation
                    JOINT LeftFinger02
                    {
                      OFFSET -0.823 -2.3 1.6571
                      CHANNELS 3 Zrotation Xrotation Yrotation
                      End Site
                      {
                        OFFSET -0.5822 -1.6914 1.1582
                      }
                    }
                  }
                }
              }
            }
          }
        }
        JOINT RightCollar
        {
          OFFSET -2.2603 21.606 7.4023
          CHANNELS 3 Zrotation Xrotation Yrotation
          JOINT RightShoulder
          {
            OFFSET -13.5187 -1.1334 -5.0155
            CHANNELS 3 Zrotation Xrotation Yrotation
            JOINT RightElbow
            {
              OFFSET 0.0994 -28.0499 -0.2431
              CHANNELS 3 Zrotation Xrotation Yrotation
              JOINT RightWrist
              {
                OFFSET -0.0679 -23.3996 -0.1402
                CHANNELS 3 Zrotation Xrotation Yrotation
                JOINT RightFinger1
                {
                  OFFSET -0.7932 -9.0691 2.5189
                  CHANNELS 3 Zrotation Xrotation Yrotation
                  JOINT RightFinger11
                  {
                    OFFSET 0.8272 -3.3923 0.5977
                    CHANNELS 3 Zrotation Xrotation Yrotation
                    JOINT RightFinger12
                    {
                      OFFSET 0.565 -2.3158 0.4082
                      CHANNELS 3 Zrotation Xrotation Yrotation
                      End Site
                      {
                        OFFSET 0.4919 -1.6479 0.2673
                      }
                    }
                  }
                }
                JOINT RightFinger2
                {
                  OFFSET -0.916 -9.2044 0.2193
                  CHANNELS 3 Zrotation Xrotation Yrotation
                  JOINT RightFinger21
                  {
                    OFFSET -0.0117 -4.1944 -0.0248
                    CHANNELS 3 Zrotation Xrotation Yrotation
                    JOINT RightFinger22
                    {
                      OFFSET -0.0071 -2.3249 -0.0142
                      CHANNELS 3 Zrotation Xrotation Yrotation
                      End Site
                      {
                        OFFSET 0.1475 -2.0882 0.0028
                      }
                    }
                  }
                }
                JOINT RightFinger3
                {
                  OFFSET -0.6113 -8.7231 -2.0637
                  CHANNELS 3 Zrotation Xrotation Yrotation
                  JOINT RightFinger31
                  {
                    OFFSET 0.1927 -3.8059 -0.2383
                    CHANNELS 3 Zrotation Xrotation Yrotation
                    JOINT RightFinger32
                    {
                      OFFSET 0.1091 -2.1688 -0.1362
                      CHANNELS 3 Zrotation Xrotation Yrotation
                      End Site
                      {
                        OFFSET 0.2358 -1.9176 -0.0906
                      }
                    }
                  }
                }
                JOINT RightFinger4
                {
                  OFFSET 0.6151 -8.0947 -3.564
                  CHANNELS 3 Zrotation Xrotation Yrotation
                  JOINT RightFinger41
                  {
                    OFFSET 0.4882 -2.341 -0.6462
                    CHANNELS 3 Zrotation Xrotation Yrotation
                    JOINT RightFinger42
                    {
                      OFFSET 0.3574 -1.7166 -0.4742
                      CHANNELS 3 Zrotation Xrotation Yrotation
                      End Site
                      {
                        OFFSET 0.4187 -1.5237 -0.3496
                      }
                    }
                  }
                }
                JOINT RightFinger0
                {
                  OFFSET 1.4199 -1.8761 1.4221
                  CHANNELS 3 Zrotation Xrotation Yrotation
                  JOINT RightFinger01
                  {
                    OFFSET 1.1472 -3.4929 2.6336
                    CHANNELS 3 Zrotation Xrotation Yrotation
                    JOINT RightFinger02
                    {
                      OFFSET 0.8229 -2.3 1.6571
                      CHANNELS 3 Zrotation Xrotation Yrotation
                      End Site
                      {
                        OFFSET 0.5822 -1.6914 1.1582
                      }
                    }
                  }
                }
              }
            }
          }
        }
      }
    }
  }
  JOINT RightHip
  {
    OFFSET -9.412 3.9771 -0.7758
    CHANNELS 3 Zrotation Xrotation Yrotation
    JOINT RightKnee
    {
      OFFSET -0.7531 -40.938 0
      CHANNELS 3 Zrotation Xrotation Yrotation
      JOINT RightAnkle
      {
        OFFSET 0 -40.1986 0
        CHANNELS 3 Zrotation Xrotation Yrotation
        JOINT RightToe
        {
          OFFSET 0 -4.4182 9.239
          CHANNELS 3 Zrotation Xrotation Yrotation
          End Site
          {
            OFFSET 0 0 6.1981
          }
        }
      }
    }
  }
  JOINT LeftHip
  {
    OFFSET 9.4119 3.9773 -0.7758
    CHANNELS 3 Zrotation Xrotation Yrotation
    JOINT LeftKnee
    {
      OFFSET 0.7532 -40.9383 0
      CHANNELS 3 Zrotation Xrotation Yrotation
      JOINT LeftAnkle
      {
        OFFSET 0 -40.1986 0
        CHANNELS 3 Zrotation Xrotation Yrotation
        JOINT LeftToe
        {
          OFFSET 0 -4.4182 9.239
          CHANNELS 3 Zrotation Xrotation Yrotation
          End Site
          {
            OFFSET 0 0 6.1981
          }
        }
      }
    }
  }
}
MOTION
Frames:	5
Frame Time:	0.0333333
2.60633 26.0971 -5.53184 -4.73732e-015 -17.9965 -180 -0.237502 8.03009 -0.162183 -0.458651 16.0608 -0.294772 -0.458653 16.0608 -0.294773 2.31862e-006 -7.50761 1.59101e-006 2.87915e-008 -8.44536 -1.86029e-007 12.5509 -26.0213 -5.07184 14.2435 -18.298 15.1818 -43.3824 -46.9096 -23.7651 -1.88722 0.949731 4.2756 -3.18055e-015 -6.36111e-015 -3.18055e-015 1.59028e-015 -3.18055e-015 -6.36111e-015 3.53113e-031 6.36111e-015 -3.18055e-015 -3.18055e-015 -6.36111e-015 -3.18055e-015 -0.0128484 0.00233566 8.57196e-005 1.59028e-015 0 -0 -3.18055e-015 -6.36111e-015 -3.18055e-015 -0.0160678 0.00299334 0.000860863 1.59028e-015 6.36111e-015 -1.59028e-015 -3.18055e-015 -6.36111e-015 -3.18055e-015 -0.0125834 0.00312362 0.00283123 3.18055e-015 3.18055e-015 -3.18055e-015 -3.18055e-015 -6.36111e-015 -3.18055e-015 1.59028e-015 -3.18055e-015 -6.36111e-015 3.53113e-031 6.36111e-015 -3.18055e-015 -4.95928 -28.5322 10.9287 -18.4891 -2.70069 -13.4811 57.4023 -50.7431 38.0935 -4.69607 6.56937 -3.63516 -7.3113e-007 1.76995e-007 4.15513e-007 7.3113e-007 -1.76995e-007 -4.15513e-007 -7.95139e-016 0 4.77083e-015 -7.3113e-007 1.76995e-007 4.15513e-007 0.0129529 0.00231423 -8.88233e-005 3.97569e-015 -6.36111e-015 1.59028e-015 -7.3113e-007 1.76995e-007 4.15513e-007 0.0163451 0.00304044 -0.000871979 -7.95139e-016 -6.36111e-015 -0 -7.3113e-007 1.76995e-007 4.15513e-007 0.0146011 0.00368688 -0.00326924 -2.64834e-031 9.54166e-015 1.59028e-015 -7.3113e-007 1.76995e-007 4.15513e-007 7.3113e-007 -1.76995e-007 -4.15513e-007 -7.95139e-016 0 4.77083e-015 -27.75 -11.8939 -11.4986 -148.152 80.5379 139.618 8.15864 26.6462 -2.82786 9.09199e-007 -5.15975e-007 -2.67206e-006 108.605 -47.4057 121.191 20.7661 76.4763 -8.72956 -16.1928 17.7688 14.5979 -1.60497e-006 7.37267e-007 -3.0876e-007 
2.61445 26.0969 -5.9925 -4.73732e-015 -17.9965 -180 -0.237756 7.92356 -0.162097 -0.459318 15.8477 -0.294918 -0.459319 15.8478 -0.294919 1.26079e-006 -7.01234 9.20867e-007 1.82711e-007 -7.88846 -1.7096e-007 12.2616 -24.7185 -5.20605 14.2436 -18.298 15.1818 -43.3825 -46.9096 -23.7651 -1.83949 0.282228 3.75417 3.81733e-007 -3.02649e-006 -3.68378e-006 -1.59028e-015 -6.36111e-015 -1.59028e-015 1.59028e-015 -6.36111e-015 3.18055e-015 3.81733e-007 -3.02649e-006 -3.68378e-006 -0.0128097 0.00232648 8.01177e-005 -3.18055e-015 3.18055e-015 -0 3.81733e-007 -3.02649e-006 -3.68378e-006 -0.0160491 0.00299858 0.000857456 -1.59028e-015 3.18055e-015 -3.18055e-015 3.81733e-007 -3.02649e-006 -3.68378e-006 -0.0125811 0.00312183 0.00282674 -1.59028e-015 -1.27222e-014 -3.18055e-015 3.81733e-007 -3.02649e-006 -3.68378e-006 -1.59028e-015 -6.36111e-015 -1.59028e-015 1.59028e-015 -6.36111e-015 3.18055e-015 -4.68226 -27.2618 10.9938 -18.4891 -2.70066 -13.4811 57.4022 -50.7431 38.0935 -4.67458 5.71337 -3.10518 4.37485e-006 1.99809e-007 -2.5115e-006 2.38542e-015 3.18055e-015 -0 2.38542e-015 0 -0 4.37485e-006 1.99809e-007 -2.5115e-006 0.012941 0.00231668 -8.23934e-005 -4.47431e-023 -1.61204e-006 -1.59028e-015 4.37485e-006 1.99809e-007 -2.5115e-006 0.0163352 0.00303944 -0.000873063 -2.38542e-015 -3.18055e-015 1.59028e-015 4.37485e-006 1.99809e-007 -2.5115e-006 0.0145828 0.00367808 -0.00325855 -7.95139e-016 -3.18055e-015 6.36111e-015 4.37485e-006 1.99809e-007 -2.5115e-006 2.38542e-015 3.18055e-015 -0 2.38542e-015 0 -0 -27.7823 -11.4672 -11.2183 -146.159 80.9896 137.949 8.17564 26.7502 -2.51737 4.34113e-006 9.49451e-007 -2.67865e-006 108.551 -47.2103 120.997 21.9483 76.9588 -9.8634 -16.4525 17.4123 14.2844 1.59028e-015 1.59028e-015 3.18055e-015 
2.62266 26.097 -6.4532 -4.73732e-015 -17.9965 -180 -0.238 7.81693 -0.162005 -0.459966 15.6345 -0.295056 -0.459967 15.6345 -0.295057 4.68707e-007 -6.51699 6.14646e-007 7.55687e-007 -7.33143 -7.77892e-008 11.9781 -23.4133 -5.33191 14.2436 -18.298 15.1818 -43.3825 -46.9096 -23.7651 -1.79782 -0.386104 3.233 -1.27222e-014 0 1.59028e-014 -1.27222e-014 0 1.11319e-014 -1.43125e-014 6.36111e-015 1.27222e-014 -1.27222e-014 0 1.59028e-014 -0.0128257 0.00232934 8.75886e-005 1.76556e-031 -3.18055e-015 3.18055e-015 -1.27222e-014 0 1.59028e-014 -0.016026 0.00299897 0.000859838 -1.90833e-014 -3.18055e-015 1.43125e-014 -1.27222e-014 0 1.59028e-014 -0.0125615 0.00311858 0.00282073 1.59028e-015 3.18055e-015 1.59028e-015 -1.27222e-014 0 1.59028e-014 -1.27222e-014 0 1.11319e-014 -1.43125e-014 6.36111e-015 1.27222e-014 -4.40953 -25.9894 11.0516 -18.4891 -2.70066 -13.4811 57.4023 -50.7431 38.0935 -4.64515 4.85688 -2.57513 -7.95139e-016 0 -1.59028e-015 1.76556e-031 -3.18055e-015 3.18055e-015 -3.18055e-015 0 -0 -7.95139e-016 0 -1.59028e-015 0.0129296 0.00231831 -8.46018e-005 -6.36111e-015 0 7.95139e-015 -7.95139e-016 0 -1.59028e-015 0.016317 0.00303377 -0.000867437 -7.95139e-016 3.18055e-015 -1.59028e-015 -7.95139e-016 0 -1.59028e-015 0.0145649 0.00367427 -0.00325841 -5.56597e-015 0 6.36111e-015 -7.95139e-016 0 -1.59028e-015 1.76556e-031 -3.18055e-015 3.18055e-015 -3.18055e-015 0 -0 -27.8159 -11.0404 -10.9383 -143.974 81.4313 136.088 8.19241 26.8544 -2.20674 9.54166e-015 0 -6.95746e-015 108.499 -47.0149 120.806 23.2203 77.4361 -11.0865 -16.7137 17.0566 13.9699 -2.10647e-006 2.61649e-006 1.16057e-006 
2.63096 26.0974 -6.91394 -4.73731e-015 -17.9965 -180 -0.238233 7.71027 -0.161907 -0.460597 15.4211 -0.295185 -0.460598 15.4212 -0.295186 2.05908e-006 -6.02161 1.27128e-006 -7.11735e-007 -6.77426 -9.20007e-008 11.7 -22.1059 -5.44975 14.2435 -18.298 15.1818 -43.3824 -46.9096 -23.7651 -1.76226 -1.05513 2.71194 -3.53113e-031 6.36111e-015 3.18055e-015 6.36111e-015 0 -0 3.18055e-015 -3.18055e-015 -3.18055e-015 -3.53113e-031 6.36111e-015 3.18055e-015 -0.0128216 0.00231788 8.46026e-005 -4.77083e-015 0 1.59028e-015 -3.53113e-031 6.36111e-015 3.18055e-015 -0.0160239 0.00298835 0.000852873 -3.18055e-015 9.54166e-015 -0 -3.53113e-031 6.36111e-015 3.18055e-015 -0.0125959 0.00312832 0.00282898 -2.23476e-006 -5.73677e-006 -2.81459e-007 -3.53113e-031 6.36111e-015 3.18055e-015 6.36111e-015 0 -0 3.18055e-015 -3.18055e-015 -3.18055e-015 -4.14076 -24.7153 11.102 -18.4891 -2.70067 -13.4811 57.4022 -50.7431 38.0935 -4.60781 4.00008 -2.04489 -3.42258e-008 -3.28434e-007 -1.88388e-006 -7.59311e-007 -8.09227e-007 -1.45914e-006 8.74653e-015 -1.55714e-006 -3.18055e-015 -3.42258e-008 -3.28434e-007 -1.88388e-006 0.0129399 0.00231158 -8.514e-005 -7.59149e-007 -2.14561e-006 -1.45917e-006 -3.42258e-008 -3.28434e-007 -1.88388e-006 0.0163264 0.00303685 -0.000872047 -3.40385e-008 -3.09447e-006 -1.88388e-006 -3.42258e-008 -3.28434e-007 -1.88388e-006 0.0145961 0.00368048 -0.00326482 -7.591e-007 -9.4749e-008 -1.45922e-006 -3.42258e-008 -3.28434e-007 -1.88388e-006 -7.59311e-007 -8.09227e-007 -1.45914e-006 8.74653e-015 -1.55714e-006 -3.18055e-015 -27.8507 -10.6136 -10.6586 -141.573 81.8614 134.01 8.20908 26.9587 -1.89591 -8.74609e-006 1.2745e-005 -4.26827e-006 108.449 -46.8193 120.618 24.5917 77.9075 -12.4087 -16.9762 16.7018 13.6546 1.60528e-006 -2.4464e-006 3.08595e-007 
2.63935 26.0982 -7.37472 -4.73732e-015 -17.9965 -180 -0.238457 7.60352 -0.161803 -0.461209 15.2077 -0.295306 -0.461211 15.2077 -0.295307 1.14919e-006 -5.5261 8.26759e-007 -6.52205e-007 -6.217 -6.28208e-007 11.4271 -20.7968 -5.55984 14.2436 -18.298 15.1818 -43.3824 -46.9096 -23.7651 -1.73269 -1.72467 2.19101 -1.59028e-015 -6.36111e-015 -0 -1.59028e-015 -3.18055e-015 -1.59028e-015 -1.05934e-030 -1.27222e-014 -4.77083e-015 -1.59028e-015 -6.36111e-015 -0 -0.0128236 0.00233739 8.56352e-005 4.77083e-015 1.27222e-014 1.59028e-015 -1.59028e-015 -6.36111e-015 -0 -0.0160545 0.00299035 0.000851134 3.18055e-015 3.18055e-015 3.18055e-015 -1.59028e-015 -6.36111e-015 -0 -0.0125651 0.00311691 0.00282291 -3.18055e-015 -3.18055e-015 -0 -1.59028e-015 -6.36111e-015 -0 -1.59028e-015 -3.18055e-015 -1.59028e-015 -1.05934e-030 -1.27222e-014 -4.77083e-015 -3.87563 -23.4399 11.1455 -18.4891 -2.70066 -13.4811 57.4023 -50.7431 38.0935 -4.5625 3.14323 -1.51429 1.59028e-015 -3.18055e-015 4.77083e-015 -3.18055e-015 -1.27222e-014 3.18055e-015 1.59028e-015 -6.36111e-015 1.59028e-015 1.59028e-015 -3.18055e-015 4.77083e-015 0.0129497 0.00231735 -8.75013e-005 2.94201e-014 -1.27222e-014 -9.54166e-015 1.59028e-015 -3.18055e-015 4.77083e-015 0.0163192 0.0030328 -0.000871966 -2.38542e-015 9.54166e-015 -4.77083e-015 1.59028e-015 -3.18055e-015 4.77083e-015 0.0145752 0.00367358 -0.00325748 -2.42835e-006 7.81385e-006 3.46073e-007 1.59028e-015 -3.18055e-015 4.77083e-015 -3.18055e-015 -1.27222e-014 3.18055e-015 1.59028e-015 -6.36111e-015 1.59028e-015 -27.8869 -10.1866 -10.3792 -138.926 82.2779 131.686 8.22549 27.0632 -1.58488 4.77083e-015 -6.36111e-015 1.98785e-016 108.401 -46.6234 120.431 26.0731 78.3724 -13.8404 -17.2402 16.348 13.3382 -1.64884e-022 1.48514e-006 6.36111e-015 
